<!DOCTYPE svg PUBLIC "-//W3C//DTD SVG 1.1//EN" "http://www.w3.org/Graphics/SVG/1.1/DTD/svg11.dtd">
<!-- Uploaded to: SVG Repo, www.svgrepo.com, Transformed by: SVG Repo Mixer Tools -->
<svg width="188px" height="188px" viewBox="0 0 12.00 12.00" version="1.1" xmlns="http://www.w3.org/2000/svg" xmlns:xlink="http://www.w3.org/1999/xlink" fill="#000000" stroke="#000000">
<g id="SVGRepo_bgCarrier" stroke-width="0"/>
<g id="SVGRepo_tracerCarrier" stroke-linecap="round" stroke-linejoin="round" stroke="#CCCCCC" stroke-width="0.12000000000000002"/>
<g id="SVGRepo_iconCarrier"> <title>wifi [#ffea00]</title> <desc>Created with Sketch.</desc> <defs> </defs> <g id="Page-1" stroke-width="0.00012000000000000002" fill="none" fill-rule="evenodd"> <g id="Dribbble-Light-Preview" transform="translate(-185.000000, -3643.000000)" fill="#ffea00"> <g id="icons" transform="translate(56.000000, 160.000000)"> <path d="M130.976447,3491 L130.976447,3491.005 C129.88446,3491.005 129,3492.003 129,3493.003 C129,3494.003 129.988224,3495 130.976447,3495 C132.068434,3495 132.952895,3494.003 132.952895,3493.003 L132.952895,3493 L132.952895,3493 C132.952895,3491.895 132.068434,3491 130.976447,3491 M130.976447,3487 L130.976447,3489 C132.952895,3489 135.070658,3491 135.070658,3493 L137.047105,3493 C137.047105,3490 133.941118,3487 130.976447,3487 M141,3493 L139.023553,3493 C139.023553,3489 134.929342,3485 130.976447,3485 L130.976447,3483 C135.917566,3483 141,3487 141,3493" id="wifi-[#ffea00]"> </path> </g> </g> </g> </g>
</svg>